<mxfile host="app.diagrams.net" modified="2021-09-04T09:34:51.017Z" agent="5.0 (Macintosh; Intel Mac OS X 10_15_7) AppleWebKit/605.1.15 (KHTML, like Gecko) Version/14.1.1 Safari/605.1.15" etag="2FkFoIPz0OSAby-QThqC" version="15.0.6" type="github">
  <diagram id="kuBvzf7smpvbt-nlZvy0" name="第 1 页">
    <mxGraphModel dx="946" dy="501" grid="1" gridSize="10" guides="1" tooltips="1" connect="1" arrows="1" fold="1" page="1" pageScale="1" pageWidth="827" pageHeight="1169" math="0" shadow="0">
      <root>
        <mxCell id="0" />
        <mxCell id="1" parent="0" />
        <mxCell id="j6YAe-L5sP2kWDklJVDa-12" value="FIN seq = x&lt;br&gt;ACK = y" style="rounded=0;orthogonalLoop=1;jettySize=auto;html=1;entryX=0;entryY=0;entryDx=0;entryDy=0;fontSize=16;exitX=1;exitY=0;exitDx=0;exitDy=0;strokeWidth=2;" edge="1" parent="1" source="j6YAe-L5sP2kWDklJVDa-1" target="j6YAe-L5sP2kWDklJVDa-7">
          <mxGeometry relative="1" as="geometry" />
        </mxCell>
        <mxCell id="j6YAe-L5sP2kWDklJVDa-1" value="FIN_WAIT_1" style="rounded=0;whiteSpace=wrap;html=1;fontSize=16;gradientColor=#ffd966;fillColor=#fff2cc;strokeColor=#d6b656;" vertex="1" parent="1">
          <mxGeometry x="120" y="180" width="120" height="140" as="geometry" />
        </mxCell>
        <mxCell id="j6YAe-L5sP2kWDklJVDa-2" value="FIN_WAIT_2" style="rounded=0;whiteSpace=wrap;html=1;fontSize=16;gradientColor=#ffa500;fillColor=#ffcd28;strokeColor=#d79b00;" vertex="1" parent="1">
          <mxGeometry x="120" y="320" width="120" height="110" as="geometry" />
        </mxCell>
        <mxCell id="j6YAe-L5sP2kWDklJVDa-15" value="ACK = x+1" style="edgeStyle=none;rounded=0;orthogonalLoop=1;jettySize=auto;html=1;entryX=1;entryY=0;entryDx=0;entryDy=0;fontSize=16;exitX=0;exitY=0;exitDx=0;exitDy=0;strokeWidth=2;" edge="1" parent="1" source="j6YAe-L5sP2kWDklJVDa-7" target="j6YAe-L5sP2kWDklJVDa-2">
          <mxGeometry relative="1" as="geometry" />
        </mxCell>
        <mxCell id="j6YAe-L5sP2kWDklJVDa-19" value="" style="edgeStyle=none;rounded=0;orthogonalLoop=1;jettySize=auto;html=1;fontSize=16;" edge="1" parent="1" source="j6YAe-L5sP2kWDklJVDa-7" target="j6YAe-L5sP2kWDklJVDa-8">
          <mxGeometry relative="1" as="geometry" />
        </mxCell>
        <mxCell id="j6YAe-L5sP2kWDklJVDa-7" value="CLOST_WAIT" style="rounded=0;whiteSpace=wrap;html=1;fontSize=16;gradientColor=#7ea6e0;fillColor=#dae8fc;strokeColor=#6c8ebf;" vertex="1" parent="1">
          <mxGeometry x="480" y="230" width="120" height="120" as="geometry" />
        </mxCell>
        <mxCell id="j6YAe-L5sP2kWDklJVDa-21" value="&lt;font color=&quot;#ff00ff&quot;&gt;FIN seq=y+101&lt;/font&gt;" style="edgeStyle=none;rounded=0;orthogonalLoop=1;jettySize=auto;html=1;fontSize=16;entryX=1;entryY=0;entryDx=0;entryDy=0;exitX=0;exitY=0;exitDx=0;exitDy=0;strokeWidth=2;fillColor=#fa6800;strokeColor=#C73500;" edge="1" parent="1" source="j6YAe-L5sP2kWDklJVDa-8">
          <mxGeometry relative="1" as="geometry">
            <mxPoint x="240" y="430" as="targetPoint" />
          </mxGeometry>
        </mxCell>
        <mxCell id="j6YAe-L5sP2kWDklJVDa-8" value="LAT_ACK" style="rounded=0;whiteSpace=wrap;html=1;fontSize=16;gradientColor=#d5739d;fillColor=#e6d0de;strokeColor=#996185;" vertex="1" parent="1">
          <mxGeometry x="480" y="350" width="120" height="90" as="geometry" />
        </mxCell>
        <mxCell id="j6YAe-L5sP2kWDklJVDa-11" value="close()" style="text;html=1;align=center;verticalAlign=middle;resizable=0;points=[];autosize=1;strokeColor=#36393d;fillColor=#ffff88;fontSize=16;" vertex="1" parent="1">
          <mxGeometry x="510" y="340" width="60" height="20" as="geometry" />
        </mxCell>
        <mxCell id="j6YAe-L5sP2kWDklJVDa-23" value="&lt;font color=&quot;#ff3333&quot;&gt;DATA&lt;br&gt;seq=y+100&lt;/font&gt;" style="edgeStyle=none;rounded=0;orthogonalLoop=1;jettySize=auto;html=1;fontSize=16;strokeWidth=2;fillColor=#f8cecc;strokeColor=#b85450;" edge="1" parent="1">
          <mxGeometry relative="1" as="geometry">
            <mxPoint x="480" y="290" as="sourcePoint" />
            <mxPoint x="360" y="340" as="targetPoint" />
          </mxGeometry>
        </mxCell>
        <mxCell id="j6YAe-L5sP2kWDklJVDa-24" value="客户端" style="text;html=1;align=center;verticalAlign=middle;resizable=0;points=[];autosize=1;strokeColor=none;fillColor=none;fontSize=16;" vertex="1" parent="1">
          <mxGeometry x="140" y="90" width="60" height="20" as="geometry" />
        </mxCell>
        <mxCell id="j6YAe-L5sP2kWDklJVDa-28" value="ESTABLISH" style="rounded=0;whiteSpace=wrap;html=1;fontSize=16;gradientColor=#97d077;fillColor=#d5e8d4;strokeColor=#82b366;" vertex="1" parent="1">
          <mxGeometry x="480" y="80" width="120" height="150" as="geometry" />
        </mxCell>
        <mxCell id="j6YAe-L5sP2kWDklJVDa-29" value="ESTABLISH" style="rounded=0;whiteSpace=wrap;html=1;fontSize=16;gradientColor=#97d077;fillColor=#d5e8d4;strokeColor=#82b366;" vertex="1" parent="1">
          <mxGeometry x="120" y="80" width="120" height="100" as="geometry" />
        </mxCell>
        <mxCell id="j6YAe-L5sP2kWDklJVDa-10" value="shutdown()&lt;br&gt;关闭写方向" style="text;html=1;align=center;verticalAlign=middle;resizable=0;points=[];autosize=1;strokeColor=#36393d;fillColor=#ffff88;fontSize=16;" vertex="1" parent="1">
          <mxGeometry x="130" y="150" width="100" height="40" as="geometry" />
        </mxCell>
        <mxCell id="j6YAe-L5sP2kWDklJVDa-32" value="客户端" style="text;html=1;align=center;verticalAlign=middle;resizable=0;points=[];autosize=1;strokeColor=none;fillColor=none;fontSize=16;" vertex="1" parent="1">
          <mxGeometry x="150" y="50" width="60" height="20" as="geometry" />
        </mxCell>
        <mxCell id="j6YAe-L5sP2kWDklJVDa-33" value="服务端" style="text;html=1;align=center;verticalAlign=middle;resizable=0;points=[];autosize=1;strokeColor=none;fillColor=none;fontSize=16;" vertex="1" parent="1">
          <mxGeometry x="510" y="50" width="60" height="20" as="geometry" />
        </mxCell>
        <mxCell id="j6YAe-L5sP2kWDklJVDa-35" value="被网络延迟" style="rounded=0;whiteSpace=wrap;html=1;fontSize=16;fillColor=#f8cecc;strokeColor=#b85450;" vertex="1" parent="1">
          <mxGeometry x="270" y="320" width="90" height="40" as="geometry" />
        </mxCell>
        <mxCell id="j6YAe-L5sP2kWDklJVDa-37" value="乱序的FIN报文抵达客户端，会进入到 time_wait状态吗？" style="rounded=0;whiteSpace=wrap;html=1;fontSize=16;fillColor=#ffff88;strokeColor=#36393d;" vertex="1" parent="1">
          <mxGeometry x="120" y="440" width="210" height="80" as="geometry" />
        </mxCell>
      </root>
    </mxGraphModel>
  </diagram>
</mxfile>
